<?xml version="1.0" encoding="UTF-8"?>
<!-- Generator: visioncortex VTracer -->
<svg id="svg" version="1.1" xmlns="http://www.w3.org/2000/svg" style="display: block;" viewBox="0 0 10 10"><path d="M0,0 L6,0 L6,1 L7,1 L7,5 L5,5 L5,6 L4,6 L4,5 L2,5 L2,6 L1,6 L1,5 L-1,5 L-1,1 L0,1 Z " transform="translate(2,0)" style="fill: #FFFFFF;"/><path d="M0,0 L1,0 L1,1 L2,1 L2,2 L4,2 L4,3 L6,3 L6,2 L8,2 L8,1 L9,1 L9,0 L10,0 L10,4 L9,4 L9,5 L1,5 L1,4 L0,4 Z " transform="translate(0,5)" style="fill: #FFFFFF;"/></svg>