<?xml version="1.0" encoding="UTF-8"?>
<!-- Generator: visioncortex VTracer -->
<svg id="svg" version="1.1" xmlns="http://www.w3.org/2000/svg" style="display: block;" viewBox="0 0 10 10"><path d="M0,0 L2,0 L2,1 L5,1 L5,2 L0,2 Z " transform="translate(4,4)" style="fill: #FFFFFF;"/><path d="M0,0 L5,0 L5,2 L3,2 L3,1 L0,1 Z " transform="translate(4,1)" style="fill: #FFFFFF;"/><path d="M0,0 L2,0 L2,1 L3,1 L3,2 L0,2 Z " transform="translate(0,8)" style="fill: #FFFFFF;"/><path d="M0,0 L3,0 L3,2 L2,2 L2,1 L0,1 Z " transform="translate(0,6)" style="fill: #FFFFFF;"/><path d="M0,0 L1,0 L1,1 L0,1 Z " transform="translate(6,3)" style="fill: #FFFFFF;"/></svg>