<?xml version="1.0" encoding="UTF-8"?>
<!-- Generator: visioncortex VTracer -->
<svg id="svg" version="1.1" xmlns="http://www.w3.org/2000/svg" style="display: block;" viewBox="0 0 10 10"><path d="M0,0 L8,0 L8,1 L9,1 L9,6 L8,6 L8,8 L7,8 L7,9 L5,9 L5,10 L3,10 L3,9 L1,9 L1,8 L0,8 L0,6 L-1,6 L-1,1 L0,1 Z M2,2 L2,3 L1,3 L1,6 L2,6 L2,7 L3,7 L3,8 L5,8 L5,7 L6,7 L6,6 L7,6 L7,3 L6,3 L6,2 Z " transform="translate(1,0)" style="fill: #FFFFFF;"/><path d="M0,0 L4,0 L4,3 L3,3 L3,4 L1,4 L1,3 L0,3 Z " transform="translate(3,3)" style="fill: #FFFFFF;"/></svg>