<?xml version="1.0" encoding="UTF-8"?>
<!-- Generator: visioncortex VTracer -->
<svg id="svg" version="1.1" xmlns="http://www.w3.org/2000/svg" style="display: block;" viewBox="0 0 10 10"><path d="M0,0 L1,0 L1,1 L2,1 L2,2 L3,2 L3,3 L2,3 L2,4 L1,4 L1,5 L0,5 L0,4 L-1,4 L-1,3 L-2,3 L-2,2 L-1,2 L-1,1 L0,1 Z " transform="translate(2,3)" style="fill: #FFFFFF;"/><path d="M0,0 L1,0 L1,1 L2,1 L2,2 L1,2 L1,3 L0,3 L0,2 L-1,2 L-1,1 L0,1 Z " transform="translate(6,6)" style="fill: #FFFFFF;"/><path d="M0,0 L1,0 L1,1 L2,1 L2,2 L1,2 L1,3 L0,3 L0,2 L-1,2 L-1,1 L0,1 Z " transform="translate(7,0)" style="fill: #FFFFFF;"/><path d="M0,0 L1,0 L1,1 L0,1 Z " transform="translate(3,9)" style="fill: #FFFFFF;"/><path d="M0,0 L1,0 L1,1 L0,1 Z " transform="translate(8,5)" style="fill: #FFFFFF;"/><path d="M0,0 L1,0 L1,1 L0,1 Z " transform="translate(5,3)" style="fill: #FFFFFF;"/><path d="M0,0 L1,0 L1,1 L0,1 Z " transform="translate(3,0)" style="fill: #FFFFFF;"/></svg>