<?xml version="1.0" encoding="UTF-8"?>
<!-- Generator: visioncortex VTracer -->
<svg id="svg" version="1.1" xmlns="http://www.w3.org/2000/svg" style="display: block;" viewBox="0 0 10 10"><path d="M0,0 L1,0 L1,4 L2,4 L2,0 L3,0 L3,6 L4,6 L4,7 L6,7 L6,8 L0,8 L0,7 L-1,7 L-1,1 L0,1 Z M0,4 L0,5 L1,5 L1,4 Z " transform="translate(1,1)" style="fill: #FFFFFF;"/><path d="M0,0 L4,0 L4,2 L0,2 Z " transform="translate(5,5)" style="fill: #FFFFFF;"/><path d="M0,0 L1,0 L1,3 L0,3 Z " transform="translate(5,1)" style="fill: #FFFFFF;"/><path d="M0,0 L1,0 L1,1 L0,1 Z " transform="translate(7,2)" style="fill: #FFFFFF;"/></svg>