<?xml version="1.0" encoding="UTF-8"?>
<!-- Generator: visioncortex VTracer -->
<svg id="svg" version="1.1" xmlns="http://www.w3.org/2000/svg" style="display: block;" viewBox="0 0 10 10"><path d="M0,0 L8,0 L8,1 L9,1 L9,5 L8,5 L8,7 L7,7 L7,8 L6,8 L6,9 L5,9 L5,10 L3,10 L3,9 L2,9 L2,8 L1,8 L1,7 L0,7 L0,5 L-1,5 L-1,1 L0,1 Z M2,2 L2,3 L1,3 L1,5 L2,5 L2,7 L3,7 L3,8 L5,8 L5,7 L6,7 L6,5 L7,5 L7,3 L6,3 L6,2 Z " transform="translate(1,0)" style="fill: #FFFFFF;"/><path d="M0,0 L4,0 L4,2 L3,2 L3,4 L1,4 L1,2 L0,2 Z " transform="translate(3,3)" style="fill: #FFFFFF;"/></svg>