<?xml version="1.0" encoding="UTF-8"?>
<!-- Generator: visioncortex VTracer -->
<svg id="svg" version="1.1" xmlns="http://www.w3.org/2000/svg" style="display: block;" viewBox="0 0 10 10"><path d="M0,0 L3,0 L3,1 L4,1 L4,2 L5,2 L5,3 L6,3 L6,4 L7,4 L7,5 L8,5 L8,4 L9,4 L9,6 L8,6 L8,7 L9,7 L9,8 L10,8 L10,10 L8,10 L8,9 L7,9 L7,8 L6,8 L6,9 L4,9 L4,8 L5,8 L5,7 L4,7 L4,6 L3,6 L3,5 L2,5 L2,4 L1,4 L1,3 L0,3 Z M1,1 L1,2 L2,2 L2,1 Z M2,2 L2,3 L3,3 L3,2 Z M3,3 L3,4 L4,4 L4,3 Z M4,4 L4,5 L5,5 L5,4 Z M5,5 L5,6 L6,6 L6,5 Z M6,6 L6,7 L7,7 L7,6 Z " transform="translate(0,0)" style="fill: #FFFFFF;"/></svg>